<svg width="2149" height="2111" viewBox="0 0 2149 2111" fill="none" xmlns="http://www.w3.org/2000/svg">
<path d="M1571.23 110.9C1511.42 153.139 1437.6 220.117 1409.64 285.696C1356.7 322.939 1251.66 361.8 1255 219.298C1259.17 41.1693 1614.61 80.2639 1571.23 110.9Z" fill="black"/>
<path d="M2032.9 607.136C1991.18 667.476 1924.7 743.177 1858.96 775.182C1822.17 828.576 1784.53 931.619 1928.23 916.642C2107.87 897.921 2063.17 563.37 2032.9 607.136Z" fill="black"/>
<path d="M1983.69 1364.26C1922.32 1404.46 1832.25 1449.59 1759.3 1454.5C1705.12 1490.13 1631.47 1571.43 1770.25 1611.63C1943.73 1661.88 2028.2 1335.1 1983.69 1364.26Z" fill="black"/>
<path d="M883.228 222.9C823.417 265.139 749.599 332.117 721.639 397.696C668.702 434.939 563.662 473.8 566.999 331.298C571.171 153.169 926.61 192.264 883.228 222.9Z" fill="black"/>
<path d="M405.735 1646.92C183.58 1504.24 -1.94015 1316.97 1.30088 1240C-22.7396 981.862 292.3 919.328 459.881 919.931C464.894 919.95 469.725 919.656 474.709 919.118C510.691 915.234 627.89 906.721 872.801 897.5C1131.87 887.746 1210.3 1093.5 1218.33 1205.24C1218.72 1210.77 1218.46 1216.26 1217.78 1221.76L1173.03 1582.1C1172.21 1588.68 1172.06 1595.33 1172.52 1601.95C1179.94 1708.83 1181.47 1878.59 1139.3 1960.5C987.701 2201.7 713.801 2109 627.301 1976L436.95 1678.02C428.951 1665.5 418.237 1654.95 405.735 1646.92Z" fill="black"/>
<ellipse cx="1546.8" cy="1602.5" rx="298.5" ry="217.5" fill="black"/>
<ellipse cx="1686.8" cy="929.5" rx="298.5" ry="217.5" transform="rotate(-20.3009 1686.8 929.5)" fill="black"/>
<ellipse cx="1190.7" cy="453.387" rx="298.5" ry="217.5" transform="rotate(-63.3118 1190.7 453.387)" fill="black"/>
<ellipse cx="530.696" cy="565.387" rx="298.5" ry="217.5" transform="rotate(-63.3118 530.696 565.387)" fill="black"/>
</svg>
